PathFileType	4	(X/Y/Z)	41_2_18_p1_0-513.trc
DataRate	CameraRate	NumFrames	NumMarkers	Units	OrigDataRate	OrigDataStartFrame	OrigNumFrames
59.0	59.0	7	27	m	59.0	257	514
Frame#	Time	RHip			RKnee			RAnkle			RBigToe			RSmallToe			RHeel			LHip			LKnee			LAnkle			LBigToe			LSmallToe			LHeel			Neck			Head			Nose			RShoulder			RElbow			RWrist			RThumb			RIndex			RPinky			LShoulder			LElbow			LWrist			LThumb			LIndex			LPinky			
		X1	Y1	Z1	X2	Y2	Z2	X3	Y3	Z3	X4	Y4	Z4	X5	Y5	Z5	X6	Y6	Z6	X7	Y7	Z7	X8	Y8	Z8	X9	Y9	Z9	X10	Y10	Z10	X11	Y11	Z11	X12	Y12	Z12	X13	Y13	Z13	X14	Y14	Z14	X15	Y15	Z15	X16	Y16	Z16	X17	Y17	Z17	X18	Y18	Z18	X19	Y19	Z19	X20	Y20	Z20	X21	Y21	Z21	X22	Y22	Z22	X23	Y23	Z23	X24	Y24	Z24	X25	Y25	Z25	X26	Y26	Z26	X27	Y27	Z27	
257	4.3559322033898304	0.30609630989633974	0.4985376164888495	-0.1412121034406402	0.32021204948650667	0.5349924282902799	0.312498785834052	0.34746732149200416	0.6960401478943163	0.7441215354189427	0.3407418869014993	0.48832294894881084	0.735038051820027	0.3965248243157731	0.559684554722021	0.7688101697186067	0.3423098659416763	0.7686019651295819	0.8225402148333885	0.11647002409891377	0.5219090587522542	-0.12687346992525925	0.11742475777849813	0.575863250736783	0.2969013709873542	0.10949270113776367	0.712424102054329	0.7418298297126446	0.14723634040070255	0.5689970729122712	0.7543640492383412	0.09526098811267256	0.5781092394432114	0.7604030747737329	0.12484027596764286	0.8246275008177331	0.8183872515495627	0.18095589817266453	0.5073081687278677	-0.7174485215417571	0.14421461085373039	0.5877498926181284	-0.9441421872201065	0.1622955781637224	0.44775833792582664	-0.862580508167155	0.32720555149570285	0.43558255385386074	-0.635302839736218	0.4489051158353491	0.2857392372514933	-0.7822968200690479	0.39824262974405544	0.3812450571302545	-0.9673668280230553	0.38062100326684833	0.43878643302141646	-1.0514380270737647	0.392394102310517	0.4153955743080955	-1.0581523983192014	0.4073837349299869	0.3788254782320039	-1.0474814944633324	0.05788988440174496	0.5133300824195144	-0.594391590924335	-0.2018946656241027	0.42892079790714965	-0.6438562009651154	-0.006471225195055007	0.5464025541037998	-0.7647612575836273	0.05621410248060961	0.6912449884543016	-0.7664668635924635	0.08266794442390046	0.679275899514336	-0.8224090550925002	0.03007860558435994	0.5960005434663368	-0.8225158987997991
258	4.372881355932203	0.3068436932795819	0.499662276389378	-0.13728429289838986	0.32094426748316995	0.5362513776097564	0.3168556200094957	0.3473073908423224	0.6963096486666949	0.7442550828680006	0.3406825565388199	0.48796770646372767	0.7349662605577448	0.3965151544690303	0.5593321067978378	0.7685914419327289	0.3383670059830232	0.7868483874684483	0.831620436819633	0.11647569588358772	0.5219491455651938	-0.12685850589050954	0.11829961746472431	0.5782533903440957	0.3018692400666973	0.11574752682105159	0.7182671167140275	0.748801400177804	0.14732335220184276	0.5698651291598514	0.754848475807663	0.09020355378634765	0.594571288795138	0.7646400591576299	0.12636103654849323	0.8273632157524514	0.8238067294074538	0.18086380283426107	0.5069658748136858	-0.7170617653942254	0.13942212502084544	0.5843030267556704	-0.9404894311541018	0.16307882617186778	0.42523355601108676	-0.8592715070537216	0.32771747134323775	0.436395297843474	-0.6314728305261869	0.4492940990952644	0.2866993815740577	-0.7827496275340297	0.3893329942925286	0.393953701659039	-0.9453088941154422	0.37292897424370286	0.49611046802252645	-1.0082649354147457	0.3675561558703883	0.4807559281684839	-1.0224047228416144	0.3977595206836476	0.40632385534237453	-1.0165397572177897	0.05358643976005424	0.5257590468012456	-0.5935287124793307	-0.20171533464740887	0.4297549114302352	-0.640361486900383	-0.0065029928471288445	0.5462921646087717	-0.7614896560391605	0.06026625978256646	0.6750101476905924	-0.7668447427987747	0.08632837624498342	0.6648917037883059	-0.8258532176598775	0.024912152469446763	0.5985086058546198	-0.822528502217162
259	4.389830508474576	0.30610688692836857	0.49830746509223983	-0.14129773487027314	0.3153898595016675	0.523255308514808	0.30375367891709976	0.3472592467592905	0.6961951095202092	0.7443053495212741	0.3385557026759451	0.4871241930454827	0.7338317457031719	0.3963735189441545	0.5595333319183675	0.7687985631385553	0.3385521584187083	0.7871398635075993	0.8321369598026219	0.11647112169521773	0.5221092390658517	-0.12687373837362084	0.11748930472812921	0.5765889275501374	0.296801991275183	0.11050809017194316	0.7151493038161351	0.7474416238781942	0.1478250464869738	0.5693551312105365	0.750522717330843	0.0867563556483556	0.5926048702030269	0.7596858116469312	0.12621380206895622	0.8272038469159986	0.8238996399703082	0.18079535765285715	0.5067085873957055	-0.7166701784404175	0.1467199937658551	0.5747340718407761	-0.9440466700961279	0.1629267931272262	0.4247829281468082	-0.8592134083158021	0.3277309896756268	0.43627991249991155	-0.6314023551046515	0.44650033271368433	0.28026452140527297	-0.7791792539680062	0.3778568699344699	0.4462524789801806	-0.9125441089882003	0.3673691485571056	0.5082017140624429	-0.9665466762778048	0.3658298282972991	0.5207426238007771	-0.9728383079096928	0.36868436108930497	0.48210801002273496	-0.973513692485671	0.057562956437245225	0.5123795135167424	-0.5983847370491466	-0.2019218341533502	0.4298712953651654	-0.6401884389091954	-0.00958445273961323	0.5330679365557377	-0.76146212126831	0.06087686977696895	0.6698135466871458	-0.766487659991878	0.08369523740331661	0.6507534549413312	-0.8191279261162054	0.02249680145670228	0.5853795231981583	-0.8164594207706624
260	4.406779661016949	0.30603905490120037	0.4984002848835659	-0.14124227135408132	0.3150427755005745	0.5229816795880278	0.30359434469150365	0.3487474550318435	0.6966109176127329	0.7540993504664217	0.3398980850312905	0.48925016344690847	0.7396545862308428	0.39639630005531096	0.5598470656674166	0.7689409129904171	0.33866738455342416	0.7874938865098604	0.83268757822705	0.11634531692389104	0.5221760183164634	-0.12678969429278222	0.11739416919258738	0.5765622750412477	0.29690818149900217	0.11032455233651856	0.7154464052187345	0.747793038707887	0.14826234893961052	0.5697970194132511	0.7506908999941697	0.08584531219002058	0.5934209092027336	0.7642807716518701	0.12156082719028623	0.8234689172288935	0.8223553415985214	0.17652777121337085	0.5048320418873065	-0.7134924331268072	0.13972868882144915	0.5876316375496238	-0.9399203202109218	0.1597994655423233	0.4367045587149732	-0.8522352147504356	0.32741124229263485	0.43590764147331484	-0.628036750559609	0.44946884356751843	0.2771345871483666	-0.7722596352610718	0.37307379392946716	0.46341160972394424	-0.8687332405436063	0.34379384062119267	0.5797007031820396	-0.8953036114874894	0.34363428385145567	0.6056069023944346	-0.9065940521296761	0.3616769028388523	0.5118332324607983	-0.916301528402168	0.053657494519338704	0.5260272130549778	-0.5933520460232918	-0.2070501971909316	0.4409679466793746	-0.6363397366453598	-0.009572341299958752	0.5330019220966287	-0.7613671072615777	0.05681972403936678	0.6860941161655494	-0.7619976513701077	0.07991547954056313	0.66415543836065	-0.8198389381358864	0.022279995431706404	0.5857463965501897	-0.8162941198863376
261	4.423728813559322	0.30599354172424814	0.49844721547203014	-0.1412151818087008	0.3160620602866421	0.5241698680676865	0.3081154425752062	0.3471079440253768	0.6962795194962659	0.7443470427092428	0.3434765501461327	0.5009572160738783	0.7405934253642075	0.3965326440974402	0.5601820077295896	0.7689820602382123	0.3384914301752662	0.7871912235549834	0.8320990731024752	0.11630851312365593	0.5221277848600417	-0.1267562812206024	0.11825194754474105	0.5783610323322852	0.3019809741426377	0.10986046559980704	0.7166341953423067	0.7431425395703515	0.14351157548391147	0.5840302345025614	0.7581779295565529	0.08673565601757614	0.5928117806002603	0.7596314846278919	0.12169113354823849	0.8235933039541657	0.8219210699668882	0.1775287918157861	0.49459604840028265	-0.7140855273537865	0.1392197326051339	0.5859406094554611	-0.940200151328147	0.15961647135318638	0.43693883603447253	-0.8521547260330987	0.32315955480691494	0.4352748383787351	-0.6277096030108985	0.4445974122412585	0.2626635133456893	-0.7661166918016491	0.3925344306158781	0.4830065253099266	-0.8437415689785704	0.3380892856988409	0.6055866944672681	-0.848489287535427	0.3373351260457625	0.6061761649271057	-0.8636107838251281	0.3492251564211641	0.5511626583523626	-0.866533064226662	0.05795633935126326	0.5133902732964684	-0.5944295105244551	-0.20707301192184996	0.440696029027255	-0.6363748954637993	-0.009105816547198163	0.5327395522967197	-0.7579400561474756	0.06029211566615267	0.6707518939661422	-0.7642675122337982	0.08384803582571283	0.6504407936538364	-0.8198480845068562	0.022445450004097214	0.5844758953020174	-0.8166681985218599
262	4.440677966101695	0.3062901470791046	0.49986882546235023	-0.13356386366676212	0.3151905541533398	0.5242713567939074	0.3122992877176698	0.3483038307691345	0.697978627936793	0.7499864593442472	0.33883944362191326	0.48788442710101265	0.7339140118935938	0.3965780942365496	0.5600473416902344	0.7688464613800302	0.33845017105815894	0.7870082824773359	0.8319745640653591	0.11624663987789992	0.5219260690812383	-0.12651820816417883	0.11829712656520625	0.5781574037167858	0.3018642032363506	0.10880256594133511	0.7145969047893568	0.7380013614870314	0.14327418463319724	0.5837448359865353	0.7580202352146623	0.08672175148911399	0.5929241203021862	0.7596827051491213	0.12161780537480603	0.8238294147366612	0.8221249421479427	0.17334052887570997	0.49337586842469344	-0.714489489262304	0.14216710761484358	0.5700877040321595	-0.9405011499389738	0.16292195257843814	0.44823528653364075	-0.8523685925369615	0.3192356173952409	0.43414722435658626	-0.6311961309827133	0.44017060063901425	0.25467283115287404	-0.7719186964644106	0.3948056340247858	0.5002975992485709	-0.8313589156525197	0.3393108273984651	0.5910496446617339	-0.7858194419144582	0.3363865801048867	0.5951937509531803	-0.8054083192066632	0.3370065961377747	0.5968955998180374	-0.8225889027085446	0.05361169397986856	0.5258685888577866	-0.5934413778925518	-0.20704533432099592	0.4405261434676979	-0.636378973175672	-0.009050801881762598	0.5326693957711737	-0.757865222044026	0.052163073447048	0.655028087970533	-0.7631306905250511	0.08386418686450528	0.6502599589077075	-0.8189832836274064	0.022462754382343693	0.584534052435467	-0.8164719986862324
263	4.4576271186440675	0.30627402271276355	0.4998621004953521	-0.13331716804117	0.3198980454742848	0.5367579813365106	0.3127330733929913	0.34705195468118555	0.6962135260904198	0.7442166060651338	0.3391275029475676	0.48842630510961293	0.7338847408921286	0.3968146285602441	0.5606208253144283	0.7689197311474182	0.33338305910492033	0.772975049381083	0.8249296164408678	0.11618089210065256	0.5221866340523148	-0.126434142130475	0.11829812253553992	0.5784880958783402	0.30184125720909827	0.10889631888702188	0.7146858477217902	0.7380048915198075	0.14775585813308498	0.5686909525422345	0.7499992675211247	0.08673018349125534	0.5927364819714768	0.7595958584434538	0.12070545961992854	0.8216542517677459	0.8164892063939005	0.17366771747192103	0.4937135778432605	-0.706102719938684	0.14263848866736764	0.5714788524424703	-0.9399611093076482	0.16637440721013078	0.45905090042064456	-0.852603266523265	0.3193845315899184	0.42418161682206745	-0.6317793737148528	0.4757329516992176	0.3274644787729871	-0.8042312792654716	0.3778252529511214	0.493936735506062	-0.8314833509767091	0.34725587475242337	0.6200783965858826	-0.7847808812020123	0.34180215963097127	0.6091819423604492	-0.7896635110352762	0.33786753561273086	0.5971151692982388	-0.8149838646520005	0.05786903582708488	0.5133036219709822	-0.5943347935440514	-0.20703468378125625	0.4405286378639078	-0.6363048029231294	-0.009083917038776885	0.5328243514194397	-0.7577575532633322	0.05340596559817239	0.6733290573047297	-0.7587526429759285	0.0840854356094627	0.6517283169668865	-0.8158214157834991	0.022508509714978336	0.5859089800096349	-0.8123487858409556
